<svg width="200" height="200" viewBox="0 0 200 200" fill="none" xmlns="http://www.w3.org/2000/svg">
<path d="M12.9652 64.5787C15.8135 60.9973 21.0812 60.5277 24.5563 63.5048C34.6448 72.1473 53.6446 87.8629 58 87.4999C60.9289 87.2559 63.2341 89.5364 64.8267 91.9349C66.818 94.9341 66.0305 98.7953 63.7897 101.613V101.613C60.1364 106.207 53.451 106.969 48.8573 103.316L14.2432 75.7871C10.7952 73.0449 10.223 68.0267 12.9652 64.5787V64.5787Z" fill="white"/>
<path d="M11.9652 82.0592C14.8135 78.4778 20.0812 78.0082 23.5563 80.9852C33.6448 89.6278 52.6446 105.343 57 104.98C59.9289 104.736 62.2341 107.017 63.8267 109.415C65.818 112.415 65.0305 116.276 62.7897 119.093V119.093C59.1364 123.687 52.451 124.449 47.8573 120.796L13.2432 93.2676C9.79519 90.5254 9.223 85.5072 11.9652 82.0592V82.0592Z" fill="white"/>
<path d="M12.4225 101.633C14.9595 97.8247 20.1691 96.9138 23.8823 99.5881C34.6618 107.352 54.9159 121.414 59.2254 120.686C62.1233 120.196 64.6122 122.275 66.4008 124.531C68.6373 127.352 68.1774 131.266 66.1814 134.262V134.262C62.9274 139.146 56.3297 140.468 51.4451 137.214L14.6386 112.694C10.9722 110.252 9.97998 105.299 12.4225 101.633V101.633Z" fill="white"/>
<path d="M187.164 65.0592C184.316 61.4778 179.048 61.0082 175.573 63.9852C165.485 72.6278 146.485 88.3434 142.129 87.9804C139.201 87.7363 136.895 90.0169 135.303 92.4154C133.311 95.4146 134.099 99.2758 136.34 102.093V102.093C139.993 106.687 146.678 107.449 151.272 103.796L185.886 76.2676C189.334 73.5254 189.906 68.5072 187.164 65.0592V65.0592Z" fill="white"/>
<path d="M188.38 82.0592C185.531 78.4778 180.263 78.0082 176.788 80.9852C166.7 89.6278 147.7 105.343 143.345 104.98C140.416 104.736 138.111 107.017 136.518 109.415C134.527 112.415 135.314 116.276 137.555 119.093V119.093C141.208 123.687 147.894 124.449 152.487 120.796L187.101 93.2676C190.55 90.5254 191.122 85.5072 188.38 82.0592V82.0592Z" fill="white"/>
<path d="M187.707 102.113C185.17 98.3052 179.96 97.3943 176.247 100.069C165.468 107.832 145.213 121.894 140.904 121.166C138.006 120.677 135.517 122.755 133.729 125.011C131.492 127.832 131.952 131.746 133.948 134.742V134.742C137.202 139.627 143.8 140.949 148.684 137.695L185.491 113.175C189.157 110.732 190.149 105.78 187.707 102.113V102.113Z" fill="white"/>
<path d="M18.1418 78.9648L34.6432 90.2654" stroke="#CBCCC9" stroke-width="0.5"/>
<line x1="19.1386" y1="97.7919" x2="27.461" y2="103.336" stroke="#CBCCC9" stroke-width="0.5"/>
<path d="M182.883 79L174.632 84.6503" stroke="#CBCCC9" stroke-width="0.5"/>
<path d="M180.481 98.3247L172.159 103.869" stroke="#CBCCC9" stroke-width="0.5"/>
<rect x="76" y="72" width="42" height="13" fill="white"/>
<path d="M129.202 59.5C129.202 69.9934 113.651 77 95.7016 77C77.7524 77 66.0366 69.9934 66.0366 59.5C65.2017 48 78.7524 35.5 96.7016 35.5C114.651 35.5 130.202 47.5 129.202 59.5Z" fill="white"/>
<path d="M118.7 36.0001C124.114 56.8524 111.324 55.0393 97.7002 52.0001C86.1022 52.0001 73.2017 55.0001 76.7014 36.0001C80.2017 24.5001 86.4694 21.0268 98.7003 21.0001C109.898 20.9757 116.79 28.6416 118.7 36.0001Z" fill="white"/>
<circle cx="84" cy="39" r="2" fill="black"/>
<circle cx="111" cy="39" r="2" fill="black"/>
<ellipse cx="98" cy="147.5" rx="85" ry="31.5" fill="#5C5C5C"/>
<ellipse cx="98" cy="145.024" rx="76.9932" ry="25.0027" transform="rotate(-0.0156002 98 145.024)" fill="#EB7979"/>
<path d="M93.1404 79.6153C92.9722 78.9576 92.9549 78.2704 93.0899 77.6052C93.2248 76.9399 93.5086 76.3138 93.9198 75.7738C94.3311 75.2337 94.8592 74.7937 95.4646 74.4866C96.07 74.1796 96.737 74.0135 97.4157 74.0008C98.0944 73.9881 98.7672 74.1291 99.3837 74.4132C100 74.6974 100.544 75.1173 100.976 75.6416C101.407 76.1659 101.714 76.7809 101.874 77.4407C102.033 78.1004 102.042 78.7877 101.898 79.4512L97.4157 80L93.1404 79.6153Z" fill="#D5D5D5"/>
<path d="M175.017 145.521C175.021 159.329 140.04 171.009 97.5175 171.021C54.9953 171.032 20.0221 159.329 20.0184 145.521C20.0146 131.712 43.5173 78.0209 97.5175 78.0209C151.517 78.0209 175.014 131.712 175.017 145.521Z" fill="#B9B9B9"/>
<path d="M44.3544 106.137C45.2551 104.924 46.9286 104.593 48.2234 105.371V105.371C49.7411 106.282 50.113 108.32 49.0152 109.709L47.5991 111.5L44.2946 116.221C44.1643 116.407 44.0362 116.594 43.9117 116.784C43.3913 117.579 41.9136 119.871 41.0991 121.5C40.8351 122.028 40.5788 122.656 40.3451 123.292C39.7099 125.02 37.6625 125.857 36.084 124.909V124.909C34.9359 124.22 34.4485 122.805 34.9279 121.555L35.9104 118.992C36.036 118.665 36.1898 118.349 36.3703 118.048L39.0991 113.5L42.5991 108.5L44.3544 106.137Z" fill="#D9D9D9"/>
<circle cx="51.0991" cy="103" r="2" fill="#D9D9D9"/>
<path d="M80 109.202C80 105.602 81.0557 102.083 83.0335 99.0894C85.0114 96.0961 87.8226 93.7632 91.1117 92.3855C94.4008 91.0079 98.02 90.6474 101.512 91.3497C105.003 92.0521 108.211 93.7856 110.728 96.3311C113.245 98.8767 114.96 102.12 115.654 105.651C116.349 109.181 115.992 112.841 114.63 116.167C113.267 119.493 110.96 122.336 108 124.336V124.336C102.537 128.027 96.3125 131.048 96.3125 137.642V137.642V143.899" stroke="#F1611E" stroke-width="14" stroke-linecap="round"/>
<ellipse cx="97.8235" cy="159.181" rx="5.82353" ry="5.81884" fill="#F1611E"/>
<path d="M89.6086 43.9291C89.5891 43.235 90.2957 42.6955 90.8712 43.0841C91.9024 43.7805 90.7703 44.2569 90.7703 44.2569L93.0303 44.659C93.0303 44.659 95.4235 45.0542 96.9648 44.9728C98.5061 44.8914 99.3396 44.5755 100.844 44.2465C101.93 44.0093 103.05 43.6087 103.608 43.5792V43.5792C104.085 43.554 104.738 43.7787 104.763 44.2563L105.481 57.8506C105.684 61.7113 102.72 65.0061 98.8593 65.2099L97.3854 65.2877C93.4575 65.4951 90.1299 62.4264 90.0191 58.4947L89.6086 43.9291Z" fill="#843708"/>
<path d="M90.2583 43.5333C90.164 42.866 90.7437 42.2985 91.4089 42.4064C91.6427 42.4443 91.8015 42.4701 91.8015 42.4701L94.0881 42.673C94.0881 42.673 96.5067 42.8572 98.035 42.6414C99.5632 42.4255 100.366 42.0378 101.836 41.5785C102.896 41.2473 103.977 40.7502 104.531 40.672V40.672C105.004 40.6051 105.674 40.7719 105.74 41.2455L107.645 54.7249C108.185 58.5529 105.52 62.0945 101.692 62.6352L100.059 62.866C96.2306 63.4067 92.689 60.7418 92.1483 56.9138L90.2583 43.5333Z" fill="#E36417"/>
<ellipse cx="94.2147" cy="48.419" rx="1" ry="1.5" transform="rotate(-8.67238 94.2147 48.419)" fill="#F7FAFF"/>
<ellipse cx="103.309" cy="47.6043" rx="1" ry="1.5" transform="rotate(-6.54401 103.309 47.6043)" fill="#F7FAFF"/>
<rect x="52.5618" y="62.6177" width="10" height="42.2687" rx="5" transform="rotate(28.9134 52.5618 62.6177)" fill="#D9D9D9"/>
<path d="M67.89 26.8592C68.8599 26.8483 69.7033 27.4749 70.0428 28.3835V28.3835C70.5871 29.8401 69.6531 31.4213 68.1322 31.7448C67.8265 31.8099 67.5303 31.8774 67.2629 31.9454C66.3859 32.1683 65.343 32.5166 64.3918 32.8608C62.5092 33.5419 60.7438 34.5056 59.13 35.6904C58.2995 36.3001 57.4127 36.9768 56.7384 37.5563C56.3908 37.8549 56.0334 38.2191 55.6856 38.608C54.4961 39.9382 52.2278 39.7703 51.4804 38.1499V38.1499C51.2083 37.5601 51.2005 36.8813 51.5129 36.3119C52.0387 35.3536 52.9914 33.8369 54.2496 32.7545C55.9046 31.3308 56.9744 30.6944 58.8556 29.5866C60.9095 28.3772 62.443 27.6387 64.7744 27.1432C65.7657 26.9325 66.9547 26.8697 67.89 26.8592Z" fill="#D9D9D9"/>
<circle cx="73.3745" cy="29.5609" r="2" transform="rotate(28.9134 73.3745 29.5609)" fill="#D9D9D9"/>
<path d="M89.8098 58.0581C83.1343 70.1442 67.925 74.5303 55.8389 67.8548C43.7528 61.1792 39.3667 45.9699 46.0422 33.8838C52.7178 21.7977 67.9271 17.4116 80.0132 24.0872C92.0993 30.7627 96.4854 45.972 89.8098 58.0581ZM49.3248 35.6969C43.6506 45.97 47.3788 58.898 57.6519 64.5722C67.9251 70.2464 80.853 66.5182 86.5273 56.245C92.2015 45.9719 88.4733 33.044 78.2001 27.3697C67.9269 21.6955 54.999 25.4237 49.3248 35.6969Z" fill="#D9D9D9"/>
<path d="M151 29.3469C151 25.5419 152.382 21.8927 154.842 19.2021C157.302 16.5115 160.638 15 164.117 15H167.865C171.344 15 174.68 16.5115 177.14 19.2021C179.6 21.8927 180.982 25.5419 180.982 29.3469C181.12 32.4518 180.464 35.5299 179.112 38.1175C177.76 40.7051 175.786 42.6621 173.486 43.6938C171.187 45.0693 169.213 47.6787 167.861 51.1288C166.509 54.579 165.853 58.6831 165.991 62.823M165.991 81.9522V82" stroke="#F1611E" stroke-width="14" stroke-linecap="round" stroke-linejoin="round"/>
</svg>
